<svg xmlns="http://www.w3.org/2000/svg" viewBox="0 0 16 16">
  <path fill="currentColor" d="M1 2.5A1.5 1.5 0 0 1 2.5 1h11A1.5 1.5 0 0 1 15 2.5v3A1.5 1.5 0 0 1 13.5 7h-11A1.5 1.5 0 0 1 1 5.5v-3zm1.5-.5a.5.5 0 0 0-.5.5v3a.5.5 0 0 0 .5.5h11a.5.5 0 0 0 .5-.5v-3a.5.5 0 0 0-.5-.5h-11zm-1.5 6A1.5 1.5 0 0 1 2.5 7h11A1.5 1.5 0 0 1 15 8.5v3A1.5 1.5 0 0 1 13.5 13h-11A1.5 1.5 0 0 1 1 11.5v-3zm1.5-.5a.5.5 0 0 0-.5.5v3a.5.5 0 0 0 .5.5h11a.5.5 0 0 0 .5-.5v-3a.5.5 0 0 0-.5-.5h-11zM3.5 4a.5.5 0 1 1 0-1 .5.5 0 0 1 0 1zm0 6a.5.5 0 1 1 0-1 .5.5 0 0 1 0 1z"/>
</svg>
